<?xml version="1.0" standalone="no"?>
<!DOCTYPE svg PUBLIC "-//W3C//DTD SVG 20010904//EN"
 "http://www.w3.org/TR/2001/REC-SVG-20010904/DTD/svg10.dtd">
<svg version="1.0" xmlns="http://www.w3.org/2000/svg"
 width="1024.000000pt" height="1024.000000pt" viewBox="0 0 1024.000000 1024.000000"
 preserveAspectRatio="xMidYMid meet">
<metadata>
Created by potrace 1.16, written by Peter Selinger 2001-2019
</metadata>
<g transform="translate(0.000000,1024.000000) scale(0.100000,-0.100000)"
fill="#000000" stroke="none">
<path d="M6022 8498 c-9 -9 -12 -93 -12 -315 0 -198 -4 -303 -10 -303 -6 0
-186 117 -400 261 -215 143 -405 265 -423 270 -72 21 47 97 -2332 -1495 -236
-159 -444 -303 -462 -321 -32 -34 -53 -87 -53 -137 0 -104 118 -201 208 -170
15 5 601 391 1301 857 700 466 1281 850 1291 852 13 3 433 -271 1306 -852 993
-662 1295 -858 1325 -862 80 -11 168 60 183 149 8 46 -9 115 -37 150 -12 14
-128 97 -257 184 -312 208 -909 610 -1037 697 l-103 69 0 477 c0 358 -3 480
-12 489 -9 9 -76 12 -238 12 -162 0 -229 -3 -238 -12z"/>
<path d="M4785 7087 c-13 -20 -15 -51 -13 -173 l3 -149 25 -4 c14 -1 85 0 158
4 l132 7 -2 167 -3 166 -142 3 c-140 3 -142 2 -158 -21z"/>
<path d="M5192 6938 l3 -173 153 -3 152 -3 0 159 c0 203 10 192 -174 192
l-136 0 2 -172z"/>
<path d="M4774 6656 c-11 -30 1 -305 14 -318 9 -9 56 -14 158 -16 l144 -3 -2
173 -3 173 -153 3 c-125 2 -153 0 -158 -12z"/>
<path d="M5190 6495 l0 -175 135 0 c183 0 175 -9 175 195 l0 155 -155 0 -155
0 0 -175z"/>
<path d="M4295 6117 c-80 -21 -140 -52 -189 -97 -57 -53 -84 -95 -105 -168
-16 -54 -19 -57 -54 -63 -35 -6 -66 -31 -67 -54 0 -6 7 -21 16 -33 11 -16 25
-22 54 -22 38 0 41 -2 64 -53 31 -65 84 -117 159 -156 31 -17 58 -33 58 -37 0
-4 -33 -21 -73 -39 -178 -78 -335 -192 -525 -380 -129 -127 -133 -132 -133
-174 0 -91 98 -133 172 -74 18 14 69 61 113 104 110 106 299 270 302 261 2 -4
23 -194 48 -422 25 -228 55 -495 68 -593 l22 -178 -20 -4 c-11 -2 -78 -9 -150
-15 -496 -41 -1025 -137 -1462 -266 -342 -100 -727 -257 -697 -283 5 -5 72 0
149 10 656 85 1705 130 2550 110 248 -6 493 -13 545 -16 52 -3 210 -10 350
-15 339 -13 888 -38 975 -45 39 -3 201 -12 360 -20 572 -30 1222 -79 1456
-110 137 -18 139 -18 139 -2 0 29 -270 144 -580 249 -715 240 -1829 412 -2715
419 -137 1 -322 13 -274 17 9 1 23 10 31 20 16 18 10 82 -62 792 -12 113 -26
246 -31 295 -5 50 -11 100 -14 113 -3 12 -2 22 3 22 26 0 163 -114 274 -229
120 -123 130 -131 166 -131 47 0 80 22 98 67 21 49 1 83 -120 207 -167 170
-315 268 -491 321 -48 15 -83 30 -79 34 5 4 30 24 56 44 34 27 58 58 84 112
35 71 39 75 70 75 40 0 64 22 64 59 0 37 -17 51 -60 51 -35 0 -37 2 -53 53
-47 143 -190 242 -366 252 -45 3 -97 -1 -126 -8z m295 -1812 c34 -110 72 -231
85 -270 18 -52 21 -71 12 -77 -7 -4 -68 -8 -135 -8 l-124 0 6 38 c3 20 10 87
16 147 28 278 50 399 70 379 5 -5 37 -99 70 -209z"/>
<path d="M5973 6110 c-174 -45 -278 -169 -277 -330 0 -121 59 -219 172 -285
17 -11 32 -22 32 -26 0 -7 -191 -133 -430 -282 -96 -60 -177 -111 -179 -112
-2 -2 11 -24 29 -48 31 -44 39 -82 26 -125 -4 -13 -3 -22 3 -22 33 0 214 98
354 192 31 21 57 37 57 35 0 -2 -46 -98 -101 -213 -187 -385 -197 -409 -185
-416 6 -3 38 -11 71 -17 32 -6 63 -15 68 -20 5 -5 -1 -100 -16 -233 -16 -142
-21 -227 -15 -235 11 -14 95 -33 148 -33 46 0 35 -27 101 269 l43 194 81 -7
c44 -4 98 -9 119 -13 l39 -6 -6 -229 c-5 -227 -5 -228 16 -240 26 -14 175 -14
189 0 5 5 23 97 39 203 39 267 27 239 107 239 l68 0 -4 43 c-2 23 -16 170 -32
327 -16 157 -33 321 -36 365 l-7 80 79 -74 c77 -72 234 -203 297 -248 71 -51
166 -6 167 79 0 49 -60 115 -244 262 -116 94 -370 269 -419 290 -13 5 -4 14
67 69 20 15 49 50 64 76 25 45 29 48 47 35 42 -31 123 -7 150 46 54 104 -49
221 -155 177 -11 -5 -20 5 -33 33 -48 103 -163 186 -291 209 -81 15 -119 13
-203 -9z"/>
<path d="M6160 3197 l-25 -13 -3 -172 -2 -173 -44 30 c-117 81 -288 55 -372
-56 -60 -79 -78 -143 -79 -278 0 -114 2 -123 31 -186 52 -109 125 -165 229
-176 78 -8 146 12 199 58 24 21 47 39 50 39 3 0 6 -11 6 -24 0 -43 24 -56 103
-56 40 0 78 4 86 9 11 7 14 93 16 477 2 258 1 479 -2 491 -3 13 -17 26 -35 32
-42 15 -127 14 -158 -2z m-96 -457 c14 -5 34 -18 46 -30 18 -18 20 -32 20
-159 l0 -139 -30 -26 c-37 -31 -101 -50 -140 -41 -66 14 -100 81 -100 193 0
146 42 207 147 211 17 0 43 -3 57 -9z"/>
<path d="M2396 3154 c-14 -14 -16 -71 -16 -478 0 -419 2 -465 17 -477 13 -11
82 -14 355 -14 328 0 340 1 355 20 19 27 14 152 -7 165 -8 6 -122 10 -252 10
l-238 0 0 110 0 110 194 0 c190 0 195 1 210 22 21 29 21 117 1 145 -14 20 -21
21 -98 16 -45 -3 -133 -2 -194 2 l-113 7 0 94 0 94 233 0 c180 0 237 3 252 14
22 16 32 107 16 149 l-11 27 -344 0 c-300 0 -347 -2 -360 -16z"/>
<path d="M3466 2900 c-122 -44 -200 -126 -231 -247 -64 -246 76 -457 319 -480
107 -9 225 24 297 84 36 31 36 41 -1 88 -52 66 -61 69 -115 39 -87 -49 -177
-51 -229 -6 -56 49 -75 203 -37 289 36 77 137 105 231 62 81 -37 117 -26 156
46 l18 34 -28 30 c-47 49 -118 73 -226 78 -78 3 -106 0 -154 -17z"/>
<path d="M5052 2904 c-83 -22 -172 -73 -172 -98 0 -8 17 -33 39 -57 l39 -44
43 13 c111 32 146 36 188 23 45 -13 68 -40 73 -86 l3 -29 -77 -2 c-211 -6
-343 -84 -355 -211 -14 -140 76 -233 225 -233 60 0 150 31 192 67 l30 25 9
-24 c16 -43 48 -61 111 -66 99 -7 140 23 140 103 0 28 -4 35 -19 35 -10 0 -23
6 -29 13 -6 7 -12 92 -14 197 -4 143 -9 196 -22 232 -23 63 -89 122 -157 142
-64 19 -176 20 -247 0z m217 -436 c-3 -88 -46 -128 -137 -128 -66 0 -92 18
-92 65 0 56 67 94 168 95 l62 0 -1 -32z"/>
<path d="M6759 2907 c-100 -28 -184 -99 -230 -196 -30 -62 -38 -205 -16 -282
33 -112 110 -194 221 -235 77 -29 241 -26 321 6 151 59 241 228 216 405 -19
133 -101 240 -219 286 -70 27 -223 35 -293 16z m217 -173 c45 -30 67 -89 68
-179 0 -98 -15 -145 -60 -185 -31 -26 -42 -30 -96 -30 -112 0 -161 59 -162
199 -1 85 9 129 37 164 44 55 152 70 213 31z"/>
<path d="M7763 2901 c-23 -11 -62 -38 -86 -60 l-44 -41 -7 39 c-4 25 -15 46
-28 55 -30 21 -126 21 -156 0 -22 -15 -22 -15 -22 -348 0 -245 3 -335 12 -344
18 -18 183 -16 201 3 12 12 14 49 9 227 l-5 213 42 38 c35 31 48 37 87 37 25
0 65 -5 90 -11 29 -7 49 -8 55 -2 5 5 16 45 24 88 15 75 14 80 -3 98 -29 28
-117 33 -169 8z"/>
<path d="M4023 2898 c-12 -6 -23 -18 -25 -27 -2 -9 -2 -126 1 -261 6 -243 6
-245 34 -302 43 -88 116 -128 231 -128 67 0 128 23 179 66 l32 27 6 -33 c4
-18 13 -36 21 -41 20 -13 162 -11 176 3 9 9 12 99 12 344 0 388 7 364 -110
364 -114 0 -110 10 -110 -265 l0 -234 -37 -28 c-30 -23 -46 -28 -94 -28 -51 0
-62 4 -86 28 l-28 27 -3 233 c-3 275 0 267 -111 266 -36 0 -76 -5 -88 -11z"/>
</g>
</svg>
